<?xml version="1.0" encoding="UTF-8" standalone="no"?>
<!-- Created with Inkscape (http://www.inkscape.org/) -->

<svg
   width="101.27804mm"
   height="89.326225mm"
   viewBox="0 0 101.27804 89.326225"
   version="1.1"
   id="svg1"
   xml:space="preserve"
   xmlns="http://www.w3.org/2000/svg"
   xmlns:svg="http://www.w3.org/2000/svg"><defs
     id="defs1" /><g
     id="layer1"
     transform="translate(-38.62014,-66.681664)"><path
       style="fill:#000000"
       d="m 61.002665,155.233 c -1.342286,-1.25518 -0.427381,-3.40105 -0.739097,-5.06289 -0.04998,-3.22045 -0.09996,-6.44091 -0.149935,-9.66136 -2.50986,-1.52052 -5.253681,-2.7536 -6.981313,-5.23513 -1.754987,-1.48565 -2.369689,-3.73412 -3.385024,-5.71457 -2.539189,-0.4014 -5.119022,-0.68624 -7.252395,-2.25139 -2.263004,-1.34957 -3.171801,-4.1326 -3.860104,-6.53565 0.059,-4.56566 -0.1165,-9.1699 0.08654,-13.71186 0.651687,-2.66047 1.968325,-5.18554 4.388848,-6.62966 1.600436,-1.835223 4.198083,-1.454503 6.355198,-2.052713 0.611497,-2.40942 1.882101,-4.46313 3.485168,-6.33742 2.184592,-2.626044 5.240745,-4.504508 8.420166,-5.704934 3.906273,-1.456895 8.088373,-0.760516 12.161315,-0.916289 4.830551,0 9.661105,0 14.491655,0 0,-2.430083 0,-4.860165 0,-7.290248 -1.60188,-1.249897 -3.37623,-2.370087 -3.80549,-4.501859 -0.413,-1.819851 0.21472,-3.713686 1.38426,-5.100795 1.40992,-1.259784 3.11911,-1.745362 4.97764,-1.844571 1.68159,0.557224 3.6426,1.136114 4.43981,2.921797 0.85677,1.309093 1.05198,3.227931 0.41693,4.688578 -0.17607,2.158952 -3.03207,2.474818 -3.88537,4.055057 0,2.357347 0,4.714694 0,7.072041 7.32547,0.04602 14.674403,-0.09116 21.985373,0.06808 3.16386,0.650447 6.24608,1.852976 8.90172,3.661112 2.20418,2.020108 4.29966,4.128368 5.68542,6.812118 0.8568,1.18098 0.55543,3.3513 2.62089,2.85871 2.54773,0.42997 5.09332,1.360116 6.9026,3.239346 0.95151,1.86634 2.54024,3.56021 2.08985,5.80598 -0.0344,4.61052 0.34,9.27414 0.0499,13.85144 -0.3267,2.37993 -1.93606,4.26396 -3.49675,5.94268 -1.78752,1.07518 -3.65431,1.88367 -5.77709,1.83109 -1.96039,-0.25201 -1.34123,2.534 -2.74224,3.48068 -1.24753,2.0585 -2.56975,4.04927 -4.64523,5.35683 -2.23331,1.71571 -4.88503,3.07215 -7.59653,3.71256 -10.75605,0.11765 -21.512103,0.23531 -32.268153,0.35298 -6.834788,4.54118 -13.578118,9.22211 -20.53159,13.58194 -0.816137,0.1088 -1.270613,-0.0276 -1.726929,-0.74169 z m 12.566266,-10.75457 c 2.982457,-1.82321 5.719933,-4.24255 8.904003,-5.61641 10.80699,-0.17989 21.659936,-0.11374 32.438416,-0.4463 2.65174,-0.85666 5.25914,-2.13776 7.28982,-4.02794 1.79567,-2.23738 3.40363,-4.57922 4.23221,-7.35482 0.50765,-3.15211 0.13105,-6.47961 0.30268,-9.69836 -0.0369,-4.53578 0.26614,-9.10866 0.0152,-13.62108 -0.65529,-3.62345 -1.86018,-7.353413 -4.72378,-9.838813 -1.57529,-2.14909 -4.07553,-3.21486 -6.50992,-4.06815 -4.01246,-1.44889 -8.31114,-0.663398 -12.48406,-0.859645 -12.368476,0.0377 -24.752851,-0.0753 -37.111427,0.05634 -3.41799,0.547401 -6.861493,1.727841 -9.279329,4.309931 -1.77709,1.89007 -3.28963,4.18716 -3.912458,6.746217 -1.441126,3.42896 -0.654821,7.23217 -0.95936,10.8521 -0.117411,4.63707 -0.325364,9.27836 0.45954,13.8734 0.09095,2.70868 1.945267,4.91287 2.890009,7.37728 2.367397,2.61292 5.193552,4.83557 8.561592,5.98728 0,4.29588 0,8.59175 0,12.88763 3.344118,-2.1128 6.598108,-4.36178 9.886914,-6.55867 z m 13.731753,-10.12847 c -2.68302,-0.57871 -4.97992,-2.47895 -6.38811,-4.75574 -0.69211,-1.33054 -0.24989,-3.02327 1.49232,-2.89447 1.37421,0.21053 2.21163,2.2129 3.37792,3.11745 1.85214,0.87863 3.71898,1.93964 5.82555,1.29616 2.89722,-0.0374 4.67582,-2.60133 6.59017,-4.41922 1.880326,-0.37737 3.101276,2.56445 1.4401,3.6324 -1.3018,1.72745 -2.95785,2.97962 -4.98752,3.73057 -1.82668,0.83454 -4.03974,0.57407 -6.00535,0.6744 -0.44836,-0.12718 -0.89672,-0.25437 -1.34508,-0.38155 z M 66.050383,122.66465 c -2.42573,-0.45081 -4.378714,-2.36816 -5.509616,-4.49684 -1.65769,-1.90896 -0.637238,-4.58273 -0.915694,-6.88556 0.140561,-2.33595 -0.5418,-4.86306 0.98428,-6.87718 0.995177,-2.89784 3.831469,-4.466003 6.424053,-5.756773 13.929498,-0.0328 27.870998,-0.20005 41.793004,-0.1489 2.60305,0.37547 5.39255,0.97142 7.31396,2.855913 1.73082,1.61493 2.6931,3.86477 3.45692,6.02986 -0.0881,2.91799 0.1721,5.92223 -0.12601,8.78824 -0.95584,1.90972 -1.82842,3.8872 -3.75016,5.01067 -1.40575,1.06321 -3.27664,1.65092 -4.98079,1.98178 -14.417626,-0.0625 -28.860016,0.0617 -43.262205,-0.11717 -0.475914,-0.12801 -0.951828,-0.25603 -1.427742,-0.38404 z m 6.01678,-9.19968 c 0.252978,-1.43538 1.549513,-3.01513 3.047853,-2.99789 1.46864,-0.23604 3.133836,0.66583 3.829198,1.86439 0.30198,1.83496 1.03056,3.07802 3.04002,2.54397 1.10096,-0.24076 1.01028,-3.19926 0.14645,-4.07564 -0.85537,-1.54549 -2.06483,-2.65759 -3.774249,-3.15776 -1.367344,-0.63538 -3.070832,-0.31634 -4.512585,-0.22235 -2.632874,0.87637 -5.227805,3.04651 -5.222945,6.01895 -0.560277,2.10542 1.716974,1.59828 2.998611,1.4368 0.149216,-0.47016 0.298431,-0.94031 0.447647,-1.41047 z m 27.796361,0 c 0.317236,-2.26655 2.708536,-2.95993 4.620496,-3.42705 1.19988,0.84651 3.29365,0.95334 3.3,2.78746 0.0836,1.56404 1.0575,2.85578 2.71214,2.06438 1.70542,-0.11564 0.4672,-2.7233 0.40758,-3.83112 -0.9803,-1.56183 -2.19799,-2.83311 -3.99358,-3.39705 -1.55454,-0.71599 -3.50246,-0.33056 -5.14851,-0.25254 -1.75101,0.71125 -3.378486,1.57968 -4.369626,3.25771 -0.77213,1.00339 -1.35574,2.85891 -0.78456,3.96258 0.77704,0.9085 3.470756,0.49531 3.25606,-1.16437 z m 33.295286,11.8675 c 1.23788,-0.89939 2.35166,-2.25131 3.02346,-3.5579 -0.0293,-4.6995 0.3671,-9.45615 0.0719,-14.11995 -0.31938,-2.478 -2.18247,-4.40036 -4.45097,-5.30215 -2.19249,-0.59924 -0.95156,2.23568 -1.26976,3.51113 0,6.83643 0,13.67286 0,20.50929 0.94036,-0.23905 1.91459,-0.29721 2.62541,-1.04042 z m -84.818794,-0.66681 c -0.598855,-5.02789 -0.280272,-10.1503 -0.510154,-15.2162 -0.209546,-2.44266 0.03248,-4.84172 0.697345,-7.19995 -1.219886,-0.52128 -3.35044,0.34138 -4.285783,1.48133 -2.696055,2.12283 -1.977368,5.91535 -2.074915,8.95163 0.203822,3.33248 -0.618598,6.92177 0.918323,10.00059 1.309734,1.79397 3.129837,3.46635 5.504934,3.30557 -0.08325,-0.44099 -0.1665,-0.88198 -0.24975,-1.32297 z M 91.173454,74.672459 c 1.53289,-0.334066 1.72017,-2.412557 1.24534,-3.55543 -0.79799,-1.384069 -2.85478,-1.679671 -4.03031,-0.824857 -1.71402,1.070002 -1.38337,3.809593 0.51714,4.489043 0.79172,0.659105 1.49073,0.411847 2.26783,-0.108756 z"
       id="path11" /></g></svg>
